<?xml version="1.0" standalone="no"?><!DOCTYPE svg PUBLIC "-//W3C//DTD SVG 1.1//EN" "http://www.w3.org/Graphics/SVG/1.1/DTD/svg11.dtd"><svg t="1603895682441" class="icon" viewBox="0 0 1024 1024" version="1.1" xmlns="http://www.w3.org/2000/svg" p-id="4607" xmlns:xlink="http://www.w3.org/1999/xlink" width="500" height="500"><defs><style type="text/css"></style></defs><path d="M656.896 715.190857h-277.942857c-7.314286 0-21.942857-14.628571-14.628572-21.942857 0-7.314286 7.314286-14.628571 14.628572-14.628571h277.942857c73.142857-7.314286 124.342857-65.828571 124.342857-138.971429 0-7.314286 7.314286-14.628571 14.628572-21.942857 7.314286 0 14.628571 7.314286 21.942857 14.628571v7.314286c0 43.885714-14.628571 87.771429-43.885715 124.342857-36.571429 29.257143-73.142857 51.2-117.028571 51.2z m-416.914286-182.857143c-7.314286 0-14.628571-7.314286-14.628571-21.942857 0-43.885714 14.628571-87.771429 43.885714-124.342857 29.257143-29.257143 65.828571-51.2 109.714286-51.2h277.942857c7.314286 0 21.942857 14.628571 14.628571 21.942857 0 7.314286-7.314286 14.628571-14.628571 14.628572h-277.942857c-73.142857 7.314286-124.342857 65.828571-124.342857 138.971428 0 14.628571-7.314286 21.942857-14.628572 21.942857z" fill="#135d98" p-id="4608"></path><path d="M576.438857 488.448c-7.314286 0-7.314286 0-14.628571-7.314286s-7.314286-21.942857 0-29.257143l87.771428-102.4-87.771428-102.4c-7.314286-7.314286-7.314286-21.942857 0-29.257142 7.314286-7.314286 14.628571-7.314286 21.942857 0l102.4 117.028571c7.314286 7.314286 7.314286 21.942857 0 29.257143l-102.4 117.028571c0 7.314286-7.314286 7.314286-7.314286 7.314286z m-102.4 343.771429c-7.314286 0-7.314286 0-14.628571-7.314286l-102.4-117.028572c-7.314286-7.314286-7.314286-21.942857 0-29.257142l102.4-117.028572c7.314286-7.314286 14.628571-7.314286 21.942857 0 7.314286 7.314286 7.314286 21.942857 0 29.257143l-87.771429 102.4 87.771429 102.4c7.314286 7.314286 7.314286 21.942857 0 29.257143 0 7.314286-7.314286 7.314286-7.314286 7.314286z" fill="#135d98" p-id="4609"></path></svg>